<svg xmlns="http://www.w3.org/2000/svg" width="14" height="14" viewBox="0 0 14 14" fill="none">
    <path d="M10.4781 10.1765C11.0756 10.1765 11.5637 9.68158 11.5637 9.07591C11.5637 8.34447 10.4781 7.15092 10.4781 7.15092C10.4781 7.15092 9.39258 8.34447 9.39258 9.07591C9.39258 9.68158 9.88066 10.1765 10.4781 10.1765ZM5.32246 9.57357C5.41953 9.67064 5.57676 9.67064 5.67246 9.57357L9.17383 6.07357C9.2709 5.9765 9.2709 5.81927 9.17383 5.72357L5.67383 2.22357C5.66563 2.21537 5.65605 2.20717 5.64648 2.20033L4.57734 1.13119C4.55403 1.10818 4.5226 1.09528 4.48984 1.09528C4.45709 1.09528 4.42565 1.10818 4.40234 1.13119L3.74609 1.78744C3.72308 1.81075 3.71018 1.84218 3.71018 1.87494C3.71018 1.90769 3.72308 1.93913 3.74609 1.96244L4.66484 2.88119L1.82383 5.72357C1.72676 5.82064 1.72676 5.97787 1.82383 6.07357L5.32246 9.57357ZM5.49883 3.44037L7.94473 5.88627H3.0543L5.49883 3.44037ZM12.3594 11.1568H1.64062C1.58047 11.1568 1.53125 11.206 1.53125 11.2661V12.3599C1.53125 12.4201 1.58047 12.4693 1.64062 12.4693H12.3594C12.4195 12.4693 12.4688 12.4201 12.4688 12.3599V11.2661C12.4688 11.206 12.4195 11.1568 12.3594 11.1568Z" fill="black" fill-opacity="0.45"/>
</svg>